HIERARCHY
ROOT joint_Root
{
	OFFSET 0.0 0.0 0.0
	CHANNELS 6 Xposition Yposition Zposition Zrotation Xrotation Yrotation 
	JOINT Hips
	{
		OFFSET 4.5925 91.4895 -427.239
		CHANNELS 6 Xposition Yposition Zposition Zrotation Xrotation Yrotation 
		JOINT Spine
		{
			OFFSET 15.7357 0.0 0.0
			CHANNELS 6 Xposition Yposition Zposition Zrotation Xrotation Yrotation 
			JOINT Chest
			{
				OFFSET 8.98455 -0.406207 0.0
				CHANNELS 6 Xposition Yposition Zposition Zrotation Xrotation Yrotation 
				JOINT Neck
				{
					OFFSET 16.3773 0.0 0.0
					CHANNELS 6 Xposition Yposition Zposition Zrotation Xrotation Yrotation 
					JOINT Head
					{
						OFFSET 6.45672 0.0 0.0
						CHANNELS 6 Xposition Yposition Zposition Zrotation Xrotation Yrotation 
						End Site
						{
							OFFSET 0.0 0.0 0.0
						}
					}
				}
				JOINT Shoulder_L
				{
					OFFSET 12.9942 -0.242716 4.98039
					CHANNELS 6 Xposition Yposition Zposition Zrotation Xrotation Yrotation 
					JOINT UpperArm_L
					{
						OFFSET 5.34809 0.0 0.0
						CHANNELS 6 Xposition Yposition Zposition Zrotation Xrotation Yrotation 
						JOINT LowerArm_L
						{
							OFFSET 24.3286 1.87007e-05 0.0
							CHANNELS 6 Xposition Yposition Zposition Zrotation Xrotation Yrotation 
							JOINT Hand_L
							{
								OFFSET 22.2916 0.0 0.0
								CHANNELS 6 Xposition Yposition Zposition Zrotation Xrotation Yrotation 
								End Site
								{
									OFFSET 0.0 0.0 0.0
								}
							}
						}
					}
				}
				JOINT Shoulder_R
				{
					OFFSET 12.9945 -0.242716 -4.98039
					CHANNELS 6 Xposition Yposition Zposition Zrotation Xrotation Yrotation 
					JOINT UpperArm_R
					{
						OFFSET -5.34813 0.0 0.0
						CHANNELS 6 Xposition Yposition Zposition Zrotation Xrotation Yrotation 
						JOINT LowerArm_R
						{
							OFFSET -24.3289 0.000322201 0.0
							CHANNELS 6 Xposition Yposition Zposition Zrotation Xrotation Yrotation 
							JOINT Hand_R
							{
								OFFSET -22.2915 -0.000108084 0.0
								CHANNELS 6 Xposition Yposition Zposition Zrotation Xrotation Yrotation 
								End Site
								{
									OFFSET 0.0 0.0 0.0
								}
							}
						}
					}
				}
			}
		}
		JOINT UpperLeg_L
		{
			OFFSET -2.19248 -6.46944 0.0
			CHANNELS 6 Xposition Yposition Zposition Zrotation Xrotation Yrotation 
			JOINT LowerLeg_L
			{
				OFFSET 39.0811 0.0 -1.23785e-05
				CHANNELS 6 Xposition Yposition Zposition Zrotation Xrotation Yrotation 
				JOINT Foot_L
				{
					OFFSET 40.9854 0.0 -1.26872e-05
					CHANNELS 6 Xposition Yposition Zposition Zrotation Xrotation Yrotation 
					JOINT Toes_L
					{
						OFFSET 11.7543 0.0 0.0
						CHANNELS 6 Xposition Yposition Zposition Zrotation Xrotation Yrotation 
						End Site
						{
							OFFSET 0.0 0.0 0.0
						}
					}
				}
			}
		}
		JOINT UpperLeg_R
		{
			OFFSET -2.19251 6.46944 0.0
			CHANNELS 6 Xposition Yposition Zposition Zrotation Xrotation Yrotation 
			JOINT LowerLeg_R
			{
				OFFSET -39.0811 -0.00228153 -0.0401928
				CHANNELS 6 Xposition Yposition Zposition Zrotation Xrotation Yrotation 
				JOINT Foot_R
				{
					OFFSET -40.9854 0.0 0.0
					CHANNELS 6 Xposition Yposition Zposition Zrotation Xrotation Yrotation 
					JOINT Toes_R
					{
						OFFSET -11.7543 0.0 0.0
						CHANNELS 6 Xposition Yposition Zposition Zrotation Xrotation Yrotation 
						End Site
						{
							OFFSET 0.0 0.0 0.0
						}
					}
				}
			}
		}
	}
}
MOTION
Frames:	6
Frame Time:	0.0333333
0.000000 0.000000 0.000000 0.000000 0.000000 -0.000000 -107.499000 87.038100 190.412000 88.288500 73.980700 1.866080 15.735700 0.000005 -0.000001 121.683000 83.708200 -122.480000 8.984550 -0.406207 -0.000000 3.006840 6.635690 -1.769420 16.377300 -0.000001 -0.000001 -2.122920 -2.276630 2.017000 6.456720 -0.000001 -0.000000 -11.899400 -5.462470 1.818220 12.994200 -0.242716 4.980390 -91.607100 4.133760 -68.734400 5.348090 -0.000007 -0.000001 -72.314200 19.683400 11.466400 24.328600 0.000019 0.000005 2.505850 30.620200 -4.910610 22.291600 -0.000001 0.000005 7.158260 5.111220 4.855370 12.994500 -0.242716 -4.980390 89.000100 8.298340 -83.104600 -5.348130 -0.000001 -0.000004 -50.279100 30.943800 -29.754700 -24.328900 0.000322 -0.000009 -1.959460 -1.222950 -58.025500 -22.291500 -0.000108 -0.000004 22.232800 5.520120 -7.367930 -2.192480 -6.469440 -0.000000 175.335000 -13.276900 -29.383400 39.081100 -0.000007 -0.000012 -0.222000 0.210824 46.479800 40.985400 -0.000006 -0.000013 4.815990 -4.535720 -68.357600 11.754300 -0.000000 0.000003 -0.000006 -0.000082 -16.580700 -2.192510 6.469440 -0.000001 172.334000 12.070200 -171.894000 -39.081100 -0.002282 -0.040193 0.021330 -0.024366 36.520400 -40.985400 0.000008 0.000006 7.613490 13.755000 -71.797100 -11.754300 -0.000006 -0.000006 -0.112019 -0.473446 -36.395900
0.000000 0.000000 0.000000 0.000000 0.000000 -0.000000 -103.532000 86.399400 190.685000 87.352100 73.413500 3.905220 15.735700 0.000005 -0.000001 118.620000 83.668900 -119.402000 8.984550 -0.406207 -0.000000 3.407500 6.087840 -1.743900 16.377300 -0.000001 -0.000001 -2.101530 -1.942800 1.647150 6.456720 -0.000001 -0.000000 -12.052000 -5.092120 1.103160 12.994200 -0.242716 4.980390 -92.136400 5.434980 -68.502200 5.348090 -0.000007 -0.000001 -70.334900 21.630300 8.127190 24.328600 0.000019 0.000005 2.152270 30.406500 -4.246440 22.291600 -0.000001 0.000005 7.011780 5.118360 4.689080 12.994500 -0.242716 -4.980390 88.925800 8.987360 -83.155500 -5.348130 -0.000001 -0.000004 -50.986300 32.877900 -27.816800 -24.328900 0.000322 -0.000009 -1.566810 -1.163260 -53.380300 -22.291500 -0.000108 -0.000004 21.586800 5.522940 -7.489020 -2.192480 -6.469440 -0.000000 176.128000 -10.055700 -26.717400 39.081100 -0.000007 -0.000012 -0.384986 0.327108 49.647500 40.985400 -0.000006 -0.000013 3.042640 -7.905590 -72.766200 11.754300 -0.000000 0.000003 -0.000100 -0.001025 -16.616900 -2.192510 6.469440 -0.000001 171.517000 10.866400 -172.667000 -39.081100 -0.002282 -0.040193 0.062019 -0.063024 42.989400 -40.985400 0.000008 0.000006 7.293120 14.239800 -66.187100 -11.754300 -0.000006 -0.000006 -0.212618 -0.665662 -45.200300
0.000000 0.000000 0.000000 0.000000 0.000000 -0.000000 -99.610100 86.174500 190.749000 87.923900 72.961700 5.111840 15.735700 0.000005 -0.000001 116.733000 83.292600 -117.623000 8.984550 -0.406207 -0.000000 4.282070 6.051990 -2.005240 16.377300 -0.000001 -0.000001 -1.550460 -1.958160 1.173420 6.456720 -0.000001 -0.000000 -12.336400 -5.141220 -0.186275 12.994200 -0.242716 4.980390 -92.216700 5.723020 -68.785100 5.348090 -0.000007 -0.000001 -68.767600 23.669300 2.895200 24.328600 0.000019 0.000005 2.115050 30.952700 -4.106870 22.291600 -0.000001 0.000005 6.700400 5.118750 4.681250 12.994500 -0.242716 -4.980390 88.944100 9.211100 -83.431600 -5.348130 -0.000001 -0.000004 -54.701400 33.278400 -23.944800 -24.328900 0.000322 -0.000009 -0.888013 -0.858253 -45.893200 -22.291500 -0.000108 -0.000004 20.812400 5.518760 -7.305570 -2.192480 -6.469440 -0.000000 175.976000 -9.986730 -22.192800 39.081100 -0.000007 -0.000012 -0.441833 0.366924 50.292700 40.985400 -0.000006 -0.000013 2.638160 -8.748530 -76.234400 11.754300 -0.000000 0.000003 -0.000132 -0.001302 -16.627200 -2.192510 6.469440 -0.000001 169.926000 9.872330 -175.606000 -39.081100 -0.002282 -0.040193 0.120409 -0.091005 52.163900 -40.985400 0.000008 0.000006 5.390030 15.484500 -56.449400 -11.754300 -0.000006 -0.000006 -0.219562 -0.676650 -45.727300
0.000000 0.000000 0.000000 0.000000 0.000000 -0.000000 -96.123200 86.212000 190.759000 88.157800 72.463600 5.970000 15.735700 0.000005 -0.000001 115.599000 83.067700 -116.431000 8.984550 -0.406207 -0.000000 4.802960 6.000750 -1.914990 16.377300 -0.000001 -0.000001 -1.284380 -1.875690 0.322683 6.456720 -0.000001 -0.000000 -12.015700 -4.976610 -2.314570 12.994200 -0.242716 4.980390 -92.244700 5.833460 -68.910300 5.348090 -0.000007 -0.000001 -67.134800 24.503000 -2.851360 24.328600 0.000019 0.000005 3.286360 30.753200 -6.408220 22.291600 -0.000001 0.000005 6.290410 5.124260 4.551920 12.994500 -0.242716 -4.980390 89.025200 8.958450 -83.764000 -5.348130 -0.000001 -0.000004 -58.754300 32.972100 -20.616900 -24.328900 0.000322 -0.000009 -0.509739 -0.699311 -35.992600 -22.291500 -0.000108 -0.000004 19.776700 5.483490 -5.873450 -2.192480 -6.469440 -0.000000 176.044000 -12.110200 -17.920200 39.081100 -0.000007 -0.000012 -0.429571 0.367562 49.449000 40.985400 -0.000006 -0.000013 3.192270 -7.551000 -78.699100 11.754300 -0.000000 0.000003 -0.000167 -0.001592 -16.637900 -2.192510 6.469440 -0.000001 169.761000 6.802490 178.683000 -39.081100 -0.002282 -0.040193 0.162344 -0.085669 61.707500 -40.985400 0.000008 0.000006 -1.534960 13.175900 -44.161000 -11.754300 -0.000006 -0.000006 -0.078099 -0.386593 -32.615000
0.000000 0.000000 0.000000 0.000000 0.000000 -0.000000 -93.031600 86.306900 190.891000 88.161800 73.030600 7.017010 15.735700 0.000005 -0.000001 112.162000 83.054700 -112.912000 8.984550 -0.406207 -0.000000 5.150280 5.246060 -1.734380 16.377300 -0.000001 -0.000001 -0.939974 -1.713760 -0.512263 6.456720 -0.000001 -0.000000 -11.291100 -4.603500 -4.617560 12.994200 -0.242716 4.980390 -92.311800 6.143190 -69.330800 5.348090 -0.000007 -0.000001 -64.800600 24.870600 -7.937810 24.328600 0.000019 0.000005 5.256460 27.791600 -11.167900 22.291600 -0.000001 0.000005 6.819430 5.145700 4.047040 12.994500 -0.242716 -4.980390 88.999300 9.478920 -83.945800 -5.348130 -0.000001 -0.000004 -62.024800 31.970100 -17.331200 -24.328900 0.000322 -0.000009 0.173332 0.374471 -25.519000 -22.291500 -0.000108 -0.000004 17.800500 5.417490 -3.483910 -2.192480 -6.469440 -0.000000 176.446000 -13.482300 -13.630700 39.081100 -0.000007 -0.000012 -0.381581 0.343158 48.035600 40.985400 -0.000006 -0.000013 3.818270 -5.943060 -80.521400 11.754300 -0.000000 0.000003 -0.000182 -0.001707 -16.642100 -2.192510 6.469440 -0.000001 169.945000 5.741140 173.246000 -39.081100 -0.002282 -0.040193 0.199416 -0.073753 69.407500 -40.985400 0.000008 0.000006 -4.943220 8.378920 -36.507900 -11.754300 -0.000006 -0.000006 -0.023717 -0.187067 -24.223700
0.000000 0.000000 0.000000 0.000000 0.000000 -0.000000 -89.936600 86.895600 191.197000 86.914700 74.779700 8.819480 15.735700 0.000005 -0.000001 107.098000 83.182600 -107.581000 8.984550 -0.406207 -0.000000 5.293470 4.010410 -1.150620 16.377300 -0.000001 -0.000001 -0.711403 -1.959200 -1.328360 6.456720 -0.000001 -0.000000 -10.622900 -4.159750 -6.655110 12.994200 -0.242716 4.980390 -92.366800 6.568550 -70.133700 5.348090 -0.000007 -0.000001 -62.141000 25.800200 -12.916900 24.328600 0.000019 0.000005 6.916680 23.481300 -16.942600 22.291600 -0.000001 0.000005 9.267100 5.194750 2.862340 12.994500 -0.242716 -4.980390 88.898900 9.847020 -83.587600 -5.348130 -0.000001 -0.000004 -64.743100 29.705700 -13.588800 -24.328900 0.000322 -0.000009 1.284450 4.247460 -16.921200 -22.291500 -0.000108 -0.000004 15.516900 5.333610 -0.876688 -2.192480 -6.469440 -0.000000 177.148000 -13.049900 -8.815830 39.081100 -0.000007 -0.000012 -0.347262 0.352529 44.569500 40.985400 -0.000006 -0.000013 4.181100 -4.634600 -81.138900 11.754300 -0.000000 0.000003 -0.000159 -0.001528 -16.635600 -2.192510 6.469440 -0.000001 171.013000 6.660640 169.749000 -39.081100 -0.002282 -0.040193 0.169132 -0.048170 73.825400 -40.985400 0.000008 0.000006 -1.871130 4.976850 -42.098400 -11.754300 -0.000006 -0.000006 -0.021244 -0.174086 -23.688000
